<?xml version="1.0" encoding="UTF-8" standalone="no"?>
<!-- Created with Inkscape (http://www.inkscape.org/) -->

<svg
   xmlns:dc="http://purl.org/dc/elements/1.1/"
   xmlns:cc="http://creativecommons.org/ns#"
   xmlns:rdf="http://www.w3.org/1999/02/22-rdf-syntax-ns#"
   xmlns:svg="http://www.w3.org/2000/svg"
   xmlns="http://www.w3.org/2000/svg"
   xmlns:sodipodi="http://sodipodi.sourceforge.net/DTD/sodipodi-0.dtd"
   xmlns:inkscape="http://www.inkscape.org/namespaces/inkscape"
   width="800.00085"
   height="400.19897"
   id="svg3191"
   version="1.1"
   inkscape:version="0.48.2 r9819"
   sodipodi:docname="court.svg">
  <defs
     id="defs3193" />
  <sodipodi:namedview
     id="base"
     pagecolor="#ffffff"
     bordercolor="#666666"
     borderopacity="1.0"
     inkscape:pageopacity="0.0"
     inkscape:pageshadow="2"
     inkscape:zoom="0.46940466"
     inkscape:cx="-78.264962"
     inkscape:cy="199.97316"
     inkscape:document-units="px"
     inkscape:current-layer="layer1"
     showgrid="false"
     fit-margin-top="0"
     fit-margin-left="0"
     fit-margin-right="0"
     fit-margin-bottom="0"
     inkscape:window-width="1366"
     inkscape:window-height="710"
     inkscape:window-x="-1"
     inkscape:window-y="26"
     inkscape:window-maximized="1" />
  <metadata
     id="metadata3196">
    <rdf:RDF>
      <cc:Work
         rdf:about="">
        <dc:format>image/svg+xml</dc:format>
        <dc:type
           rdf:resource="http://purl.org/dc/dcmitype/StillImage" />
        <dc:title></dc:title>
      </cc:Work>
    </rdf:RDF>
  </metadata>
  <g
     inkscape:label="Layer 1"
     inkscape:groupmode="layer"
     id="layer1"
     transform="translate(15.964643,-286.42877)">
    <rect
       style="fill:#eeeeec;fill-opacity:1;stroke:#000000;stroke-width:8.30490685000000006;stroke-miterlimit:4;stroke-opacity:1;stroke-dasharray:none"
       id="rect2985"
       width="791.69592"
       height="391.46735"
       x="-11.81219"
       y="290.79459"
       rx="0"
       ry="0" />
    <path
       style="fill:#729fcf;fill-opacity:1;stroke:#000000;stroke-width:7.86043215;stroke-miterlimit:4;stroke-opacity:1;stroke-dasharray:none;stroke-dashoffset:0"
       d="m 384.03578,290.35899 0,392.33855"
       id="path3755"
       inkscape:connector-curvature="0" />
    <path
       sodipodi:type="arc"
       style="fill:#000000;fill-opacity:0;stroke:#000000;stroke-width:7.88597298;stroke-miterlimit:4;stroke-opacity:1;stroke-dasharray:none;stroke-dashoffset:0"
       id="path3761"
       sodipodi:cx="354.12299"
       sodipodi:cy="207.15958"
       sodipodi:rx="65.15863"
       sodipodi:ry="65.15863"
       d="m 419.28162,207.15958 a 65.15863,65.15863 0 1 1 -130.31726,0 65.15863,65.15863 0 1 1 130.31726,0 z"
       transform="matrix(1.0456983,0,0,1.0606023,-167.89878,266.81435)" />
    <rect
       style="fill:#888a85;fill-opacity:1;stroke:#000000;stroke-width:8.30490685000000006;stroke-miterlimit:4;stroke-opacity:1;stroke-dasharray:none;stroke-dashoffset:0"
       id="rect3759"
       width="209.28252"
       height="139.20659"
       x="-11.81219"
       y="416.92499" />
    <path
       inkscape:connector-curvature="0"
       style="fill:#000000;fill-opacity:0;stroke:#000000;stroke-width:8.30490685;stroke-miterlimit:4;stroke-opacity:1;stroke-dasharray:none;stroke-dashoffset:0"
       d="m 132.47809,330.38078 c -0.6535,0 -1.31339,0.0245 -1.96495,0.0326 -0.0107,1.4e-4 -0.0215,-1.3e-4 -0.0322,0 l -142.281713,0 0,312.20799 140.284553,0 c 1.32034,0.0339 2.66593,0.0326 3.99433,0.0326 85.01744,0 153.94256,-69.90749 153.94256,-156.13666 0,-86.22918 -68.92512,-156.13667 -153.94256,-156.13667 z"
       id="path3763" />
    <path
       transform="matrix(-1.0456983,0,0,1.0606023,935.97036,266.81436)"
       d="m 419.28162,207.15958 a 65.15863,65.15863 0 1 1 -130.31726,0 65.15863,65.15863 0 1 1 130.31726,0 z"
       sodipodi:ry="65.15863"
       sodipodi:rx="65.15863"
       sodipodi:cy="207.15958"
       sodipodi:cx="354.12299"
       id="path3782"
       style="fill:#000000;fill-opacity:0;stroke:#000000;stroke-width:7.88597298;stroke-miterlimit:4;stroke-opacity:1;stroke-dasharray:none;stroke-dashoffset:0"
       sodipodi:type="arc" />
    <rect
       y="416.92499"
       x="-779.88373"
       height="139.20659"
       width="209.28252"
       id="rect3784"
       style="fill:#888a85;fill-opacity:1;stroke:#000000;stroke-width:8.30490685000000006;stroke-miterlimit:4;stroke-opacity:1;stroke-dasharray:none;stroke-dashoffset:0"
       transform="scale(-1,1)" />
    <path
       inkscape:connector-curvature="0"
       id="path3786"
       d="m 635.59349,330.38078 c 0.65349,0 1.31339,0.0244 1.96495,0.0327 0.0107,1.4e-4 0.0215,-1.3e-4 0.0322,0 l 142.28172,0 0,312.20799 -140.28456,0 c -1.32033,0.0339 -2.66593,0.0326 -3.99432,0.0326 -85.01745,0 -153.94257,-69.90749 -153.94257,-156.13667 0,-86.22917 68.92512,-156.13666 153.94257,-156.13666 z"
       style="fill:#000000;fill-opacity:0;stroke:#000000;stroke-width:8.30490685;stroke-miterlimit:4;stroke-opacity:1;stroke-dasharray:none;stroke-dashoffset:0" />
  </g>
</svg>
