<?xml version="1.0" encoding="UTF-8" standalone="no"?>
<!-- Created with Inkscape (http://www.inkscape.org/) -->

<svg
   xmlns:dc="http://purl.org/dc/elements/1.1/"
   xmlns:cc="http://creativecommons.org/ns#"
   xmlns:rdf="http://www.w3.org/1999/02/22-rdf-syntax-ns#"
   xmlns:svg="http://www.w3.org/2000/svg"
   xmlns="http://www.w3.org/2000/svg"
   xmlns:sodipodi="http://sodipodi.sourceforge.net/DTD/sodipodi-0.dtd"
   xmlns:inkscape="http://www.inkscape.org/namespaces/inkscape"
   width="800.00085"
   height="400.19897"
   id="svg3191"
   version="1.1"
   inkscape:version="0.48.2 r9819"
   sodipodi:docname="court.svg">
  <defs
     id="defs3193" />
  <sodipodi:namedview
     id="base"
     pagecolor="#ffffff"
     bordercolor="#666666"
     borderopacity="1.0"
     inkscape:pageopacity="0.0"
     inkscape:pageshadow="2"
     inkscape:zoom="0.46940466"
     inkscape:cx="-78.264962"
     inkscape:cy="199.97316"
     inkscape:document-units="px"
     inkscape:current-layer="layer1"
     showgrid="false"
     fit-margin-top="0"
     fit-margin-left="0"
     fit-margin-right="0"
     fit-margin-bottom="0"
     inkscape:window-width="1366"
     inkscape:window-height="710"
     inkscape:window-x="-1"
     inkscape:window-y="26"
     inkscape:window-maximized="1" />
  <metadata
     id="metadata3196">
    <rdf:RDF>
      <cc:Work
         rdf:about="">
        <dc:format>image/svg+xml</dc:format>
        <dc:type
           rdf:resource="http://purl.org/dc/dcmitype/StillImage" />
        <dc:title />
      </cc:Work>
    </rdf:RDF>
  </metadata>
  <g
     inkscape:label="Layer 1"
     inkscape:groupmode="layer"
     id="layer1"
     transform="translate(15.964643,-286.42877)">
    <g
       id="g2991"
       transform="matrix(1.0307935,0,0,1.0454851,0.49178078,-31.231475)">
      <rect
         ry="0"
         rx="0"
         y="308.01593"
         x="-11.936407"
         height="374.4361"
         width="768.0451"
         id="rect2985"
         style="fill:#729fcf;fill-opacity:1;stroke:#000000;stroke-width:8;stroke-miterlimit:4;stroke-opacity:1;stroke-dasharray:none" />
      <path
         inkscape:connector-curvature="0"
         id="path3755"
         d="m 372.08616,307.59928 0,375.26939"
         style="fill:#729fcf;fill-opacity:1;stroke:#000000;stroke-width:7.5718441;stroke-miterlimit:4;stroke-opacity:1;stroke-dasharray:none;stroke-dashoffset:0" />
      <path
         transform="matrix(1.0144595,0,0,1.0144595,-163.36013,285.07898)"
         d="m 419.28162,207.15958 c 0,35.98611 -29.17252,65.15863 -65.15863,65.15863 -35.98612,0 -65.15863,-29.17252 -65.15863,-65.15863 0,-35.98612 29.17251,-65.15863 65.15863,-65.15863 35.98611,0 65.15863,29.17251 65.15863,65.15863 z"
         sodipodi:ry="65.15863"
         sodipodi:rx="65.15863"
         sodipodi:cy="207.15958"
         sodipodi:cx="354.12299"
         id="path3761"
         style="fill:#000000;fill-opacity:0;stroke:#000000;stroke-width:7.88597298;stroke-miterlimit:4;stroke-opacity:1;stroke-dasharray:none;stroke-dashoffset:0"
         sodipodi:type="arc" />
      <rect
         y="428.65887"
         x="-11.936407"
         height="133.15024"
         width="203.0305"
         id="rect3759"
         style="fill:#edd400;fill-opacity:1;stroke:#000000;stroke-width:8;stroke-miterlimit:4;stroke-opacity:1;stroke-dasharray:none;stroke-dashoffset:0" />
      <path
         id="path3763"
         d="m 128.0434,345.87987 c -0.63397,0 -1.27415,0.0234 -1.90625,0.0312 -0.0104,1.3e-4 -0.0209,-1.3e-4 -0.0312,0 l -138.031252,0 0,298.625 136.093752,0 c 1.28089,0.0324 2.58629,0.0312 3.875,0.0312 82.47767,0 149.34375,-66.86608 149.34375,-149.34375 0,-82.47767 -66.86608,-149.34375 -149.34375,-149.34375 z"
         style="fill:#000000;fill-opacity:0;stroke:#000000;stroke-width:8;stroke-miterlimit:4;stroke-opacity:1;stroke-dasharray:none;stroke-dashoffset:0"
         inkscape:connector-curvature="0" />
      <g
         transform="matrix(-1,0,0,1,889.19144,-161.26356)"
         id="g3780">
        <path
           transform="matrix(1.0144595,0,0,1.0144595,-18.341036,446.34254)"
           d="m 419.28162,207.15958 c 0,35.98611 -29.17252,65.15863 -65.15863,65.15863 -35.98612,0 -65.15863,-29.17252 -65.15863,-65.15863 0,-35.98612 29.17251,-65.15863 65.15863,-65.15863 35.98611,0 65.15863,29.17251 65.15863,65.15863 z"
           sodipodi:ry="65.15863"
           sodipodi:rx="65.15863"
           sodipodi:cy="207.15958"
           sodipodi:cx="354.12299"
           id="path3782"
           style="fill:#000000;fill-opacity:0;stroke:#000000;stroke-width:7.88597298;stroke-miterlimit:4;stroke-opacity:1;stroke-dasharray:none;stroke-dashoffset:0"
           sodipodi:type="arc" />
        <rect
           y="589.92242"
           x="133.0827"
           height="133.15024"
           width="203.0305"
           id="rect3784"
           style="fill:#edd400;fill-opacity:1;stroke:#000000;stroke-width:8;stroke-miterlimit:4;stroke-opacity:1;stroke-dasharray:none;stroke-dashoffset:0" />
        <path
           inkscape:connector-curvature="0"
           id="path3786"
           transform="translate(0,452.36218)"
           d="m 273.0625,54.78125 c -0.63397,0 -1.27415,0.02337 -1.90625,0.03125 -0.0104,1.29e-4 -0.0209,-1.31e-4 -0.0312,0 l -138.03125,0 0,298.625 136.09375,0 c 1.28089,0.0324 2.58629,0.0312 3.875,0.0312 82.47767,0 149.34375,-66.86608 149.34375,-149.34375 0,-82.47767 -66.86608,-149.34375 -149.34375,-149.34375 z"
           style="fill:#000000;fill-opacity:0;stroke:#000000;stroke-width:8;stroke-miterlimit:4;stroke-opacity:1;stroke-dasharray:none;stroke-dashoffset:0" />
      </g>
    </g>
  </g>
</svg>
