<?xml version="1.0" encoding="UTF-8" standalone="no"?>
<!-- Created with Inkscape (http://www.inkscape.org/) -->

<svg
   xmlns:dc="http://purl.org/dc/elements/1.1/"
   xmlns:cc="http://creativecommons.org/ns#"
   xmlns:rdf="http://www.w3.org/1999/02/22-rdf-syntax-ns#"
   xmlns:svg="http://www.w3.org/2000/svg"
   xmlns="http://www.w3.org/2000/svg"
   xmlns:sodipodi="http://sodipodi.sourceforge.net/DTD/sodipodi-0.dtd"
   xmlns:inkscape="http://www.inkscape.org/namespaces/inkscape"
   width="37.305313"
   height="36.290634"
   id="svg3931"
   version="1.1"
   inkscape:version="0.48.2 r9819"
   sodipodi:docname="success3.svg">
  <defs
     id="defs3933" />
  <sodipodi:namedview
     id="base"
     pagecolor="#ffffff"
     bordercolor="#666666"
     borderopacity="1.0"
     inkscape:pageopacity="0.0"
     inkscape:pageshadow="2"
     inkscape:zoom="14.78326"
     inkscape:cx="2.5611178"
     inkscape:cy="18.484476"
     inkscape:document-units="px"
     inkscape:current-layer="layer1"
     showgrid="false"
     fit-margin-top="0"
     fit-margin-left="0"
     fit-margin-right="0"
     fit-margin-bottom="0"
     inkscape:window-width="1366"
     inkscape:window-height="710"
     inkscape:window-x="-1"
     inkscape:window-y="26"
     inkscape:window-maximized="1" />
  <metadata
     id="metadata3936">
    <rdf:RDF>
      <cc:Work
         rdf:about="">
        <dc:format>image/svg+xml</dc:format>
        <dc:type
           rdf:resource="http://purl.org/dc/dcmitype/StillImage" />
        <dc:title />
      </cc:Work>
    </rdf:RDF>
  </metadata>
  <g
     inkscape:label="Layer 1"
     inkscape:groupmode="layer"
     id="layer1"
     transform="translate(-533.61534,-494.54895)">
    <path
       transform="matrix(0.59836547,-0.43607896,0.43607896,0.59836547,231.11382,107.77216)"
       d="m 52.624697,699.40222 c 0,12.91725 -10.471502,23.38876 -23.388754,23.38876 -12.917252,0 -23.3887541,-10.47151 -23.3887541,-23.38876 0,-12.91725 10.4715021,-23.38875 23.3887541,-23.38875 12.917252,0 23.388754,10.4715 23.388754,23.38875 z"
       sodipodi:ry="23.388754"
       sodipodi:rx="23.388754"
       sodipodi:cy="699.40222"
       sodipodi:cx="29.235943"
       id="path4265"
       style="fill:#000000;fill-opacity:0.59210528;stroke:none"
       sodipodi:type="arc" />
    <path
       sodipodi:type="arc"
       style="fill:#4e9a06;fill-opacity:1;stroke:#000000;stroke-width:1.33647859;stroke-miterlimit:4;stroke-opacity:1;stroke-dasharray:none"
       id="path3124"
       sodipodi:cx="29.235943"
       sodipodi:cy="699.40222"
       sodipodi:rx="23.388754"
       sodipodi:ry="23.388754"
       d="m 52.624697,699.40222 c 0,12.91725 -10.471502,23.38876 -23.388754,23.38876 -12.917252,0 -23.3887541,-10.47151 -23.3887541,-23.38876 0,-12.91725 10.4715021,-23.38875 23.3887541,-23.38875 12.917252,0 23.388754,10.4715 23.388754,23.38875 z"
       transform="matrix(0.59836547,-0.43607896,0.43607896,0.59836547,228.9402,106.61322)" />
    <path
       transform="matrix(0.53075561,-0.38680599,0.38680599,0.53075561,265.37846,152.45918)"
       d="m 52.624697,699.40222 a 23.388754,23.388754 0 1 1 -46.7775081,0 23.388754,23.388754 0 1 1 46.7775081,0 z"
       sodipodi:ry="23.388754"
       sodipodi:rx="23.388754"
       sodipodi:cy="699.40222"
       sodipodi:cx="29.235943"
       id="path2984"
       style="fill:#eeeeec;fill-opacity:1;stroke:none;stroke-width:1.50672460000000008;stroke-miterlimit:4;stroke-opacity:1;stroke-dasharray:none"
       sodipodi:type="arc" />
    <path
       sodipodi:type="arc"
       style="fill:#4e9a06;fill-opacity:1;stroke:none"
       id="path2986"
       sodipodi:cx="29.235943"
       sodipodi:cy="699.40222"
       sodipodi:rx="23.388754"
       sodipodi:ry="23.388754"
       d="m 52.624697,699.40222 a 23.388754,23.388754 0 1 1 -46.7775081,0 23.388754,23.388754 0 1 1 46.7775081,0 z"
       transform="matrix(0.42930821,-0.3128728,0.3128728,0.42930821,320.05341,221.25021)" />
  </g>
</svg>
