<?xml version="1.0" encoding="UTF-8" standalone="no"?>
<!-- Created with Inkscape (http://www.inkscape.org/) -->

<svg
   xmlns:dc="http://purl.org/dc/elements/1.1/"
   xmlns:cc="http://creativecommons.org/ns#"
   xmlns:rdf="http://www.w3.org/1999/02/22-rdf-syntax-ns#"
   xmlns:svg="http://www.w3.org/2000/svg"
   xmlns="http://www.w3.org/2000/svg"
   xmlns:sodipodi="http://sodipodi.sourceforge.net/DTD/sodipodi-0.dtd"
   xmlns:inkscape="http://www.inkscape.org/namespaces/inkscape"
   width="37.421413"
   height="36.360664"
   id="svg3931"
   version="1.1"
   inkscape:version="0.48.2 r9819"
   sodipodi:docname="visit-fail.svg">
  <defs
     id="defs3933" />
  <sodipodi:namedview
     id="base"
     pagecolor="#ffffff"
     bordercolor="#666666"
     borderopacity="1.0"
     inkscape:pageopacity="0.0"
     inkscape:pageshadow="2"
     inkscape:zoom="15.083827"
     inkscape:cx="14.684595"
     inkscape:cy="18.72588"
     inkscape:document-units="px"
     inkscape:current-layer="layer1"
     showgrid="false"
     fit-margin-top="0"
     fit-margin-left="0"
     fit-margin-right="0"
     fit-margin-bottom="0"
     inkscape:window-width="1366"
     inkscape:window-height="710"
     inkscape:window-x="-1"
     inkscape:window-y="26"
     inkscape:window-maximized="1" />
  <metadata
     id="metadata3936">
    <rdf:RDF>
      <cc:Work
         rdf:about="">
        <dc:format>image/svg+xml</dc:format>
        <dc:type
           rdf:resource="http://purl.org/dc/dcmitype/StillImage" />
        <dc:title />
      </cc:Work>
    </rdf:RDF>
  </metadata>
  <g
     inkscape:label="Layer 1"
     inkscape:groupmode="layer"
     id="layer1"
     transform="translate(-534.09114,-494.62478)">
    <path
       sodipodi:type="star"
       style="fill:#000000;fill-opacity:0.58333333;stroke:none"
       id="path4269"
       sodipodi:sides="4"
       sodipodi:cx="91.137573"
       sodipodi:cy="54.316376"
       sodipodi:r1="22.031818"
       sodipodi:r2="8.933898"
       sodipodi:arg1="0.81871916"
       sodipodi:arg2="1.5653997"
       inkscape:flatsided="false"
       inkscape:rounded="0.17"
       inkscape:randomized="0"
       d="m 106.18877,70.405583 c -1.98727,2.008867 -12.178819,-7.061291 -15.002984,-7.155439 -2.932234,-0.09775 -14.051682,8.180737 -16.13742,6.117426 -2.008867,-1.987267 7.061291,-12.178816 7.155439,-15.002982 0.09775,-2.932234 -8.180737,-14.051682 -6.117426,-16.137419 1.987267,-2.008867 12.178816,7.06129 15.002982,7.155439 2.932234,0.09775 14.051679,-8.180737 16.137419,-6.117426 2.00887,1.987267 -7.06129,12.178816 -7.15544,15.002981 -0.09775,2.932234 8.18074,14.051682 6.11743,16.13742 z"
       transform="matrix(1.0461079,0,0,1.0461079,459.03804,457.02987)"
       inkscape:transform-center-x="3.3517298"
       inkscape:transform-center-y="-2.6100872" />
    <path
       inkscape:transform-center-y="-2.6100872"
       inkscape:transform-center-x="3.3517298"
       transform="matrix(1.0461079,0,0,1.0461079,456.38619,455.43877)"
       d="m 106.18877,70.405583 c -1.98727,2.008867 -12.178819,-7.061291 -15.002984,-7.155439 -2.932234,-0.09775 -14.051682,8.180737 -16.13742,6.117426 -2.008867,-1.987267 7.061291,-12.178816 7.155439,-15.002982 0.09775,-2.932234 -8.180737,-14.051682 -6.117426,-16.137419 1.987267,-2.008867 12.178816,7.06129 15.002982,7.155439 2.932234,0.09775 14.051679,-8.180737 16.137419,-6.117426 2.00887,1.987267 -7.06129,12.178816 -7.15544,15.002981 -0.09775,2.932234 8.18074,14.051682 6.11743,16.13742 z"
       inkscape:randomized="0"
       inkscape:rounded="0.17"
       inkscape:flatsided="false"
       sodipodi:arg2="1.5653997"
       sodipodi:arg1="0.81871916"
       sodipodi:r2="8.933898"
       sodipodi:r1="22.031818"
       sodipodi:cy="54.316376"
       sodipodi:cx="91.137573"
       sodipodi:sides="4"
       id="path4356"
       style="fill:#c4a000;fill-opacity:1;stroke:#000000;stroke-width:0.95592433000000021;stroke-miterlimit:4;stroke-opacity:1;stroke-dasharray:none"
       sodipodi:type="star" />
  </g>
</svg>
